if (_typeface_js && _typeface_js.loadFace) _typeface_js.loadFace({"glyphs":{"S":{"x_min":53.046875,"x_max":649.109375,"ha":699,"o":"m 361 937 q 608 874 497 937 l 608 767 q 359 841 483 841 q 235 803 284 841 q 186 700 186 765 q 210 624 186 654 q 271 574 235 593 q 365 534 308 555 q 508 474 450 504 q 608 390 567 444 q 649 255 649 336 q 606 112 649 173 q 490 20 563 52 q 329 -11 417 -11 q 191 7 258 -11 q 53 67 125 27 l 53 179 q 192 109 119 135 q 336 84 266 84 q 434 104 389 84 q 506 161 479 124 q 533 248 533 198 q 502 338 533 301 q 429 394 471 374 q 324 438 387 415 q 192 493 246 463 q 104 572 138 523 q 70 694 70 621 q 108 826 70 771 q 213 909 147 881 q 361 937 279 937 "},"F":{"x_min":110.921875,"x_max":664.546875,"ha":679,"o":"m 606 510 l 606 417 l 226 417 l 226 0 l 110 0 l 110 925 l 664 925 l 664 829 l 226 829 l 226 510 l 606 510 "},"T":{"x_min":34.71875,"x_max":773.53125,"ha":809,"o":"m 346 0 l 346 829 l 34 829 l 34 925 l 773 925 l 773 829 l 462 829 l 462 0 l 346 0 "},"N":{"x_min":108.984375,"x_max":915.3125,"ha":1026,"o":"m 220 0 l 108 0 l 108 925 l 234 925 l 803 169 l 803 925 l 915 925 l 915 0 l 788 0 l 220 757 l 220 0 "},"K":{"x_min":110.921875,"x_max":802.46875,"ha":820,"o":"m 226 925 l 226 0 l 110 0 l 110 925 l 226 925 m 238 491 l 600 925 l 744 925 l 373 494 l 802 0 l 654 0 l 238 491 "},"Y":{"x_min":29.890625,"x_max":842.015625,"ha":872,"o":"m 378 450 l 29 925 l 174 925 l 437 554 l 701 925 l 842 925 l 493 450 l 493 0 l 378 0 l 378 450 "},"E":{"x_min":110.921875,"x_max":664.546875,"ha":719,"o":"m 606 516 l 606 424 l 226 424 l 226 96 l 664 96 l 664 0 l 110 0 l 110 925 l 664 925 l 664 829 l 226 829 l 226 516 l 606 516 "},"V":{"x_min":61.71875,"x_max":903.734375,"ha":968,"o":"m 188 925 l 483 149 l 777 925 l 903 925 l 544 0 l 420 0 l 61 925 l 188 925 "},"Z":{"x_min":45.328125,"x_max":784.140625,"ha":830,"o":"m 784 0 l 45 0 l 45 96 l 635 829 l 45 829 l 45 925 l 784 925 l 784 829 l 193 96 l 784 96 l 784 0 "},"Q":{"x_min":34.71875,"x_max":1005.015625,"ha":1042,"o":"m 1005 462 q 968 280 1005 366 q 866 129 931 193 l 1005 0 l 881 0 l 800 75 q 668 11 739 33 q 519 -11 597 -11 q 276 51 387 -11 q 99 223 164 114 q 34 462 34 331 q 99 702 34 594 q 276 874 164 811 q 519 937 387 937 q 763 874 652 937 q 939 702 874 811 q 1005 462 1005 594 m 519 95 q 716 153 626 95 l 508 347 l 631 347 l 781 208 q 854 323 828 258 q 880 462 880 388 q 832 648 880 564 q 701 781 784 733 q 519 830 618 830 q 338 781 421 830 q 207 648 255 733 q 159 462 159 564 q 207 277 159 361 q 338 144 255 192 q 519 95 421 95 "},"M":{"x_min":111.875,"x_max":1034.90625,"ha":1149,"o":"m 605 304 l 539 304 l 222 758 l 222 0 l 111 0 l 111 925 l 242 925 l 573 452 l 901 925 l 1034 925 l 1034 0 l 919 0 l 919 760 l 605 304 "},"C":{"x_min":34.71875,"x_max":857.4375,"ha":904,"o":"m 511 937 q 857 806 714 937 l 857 675 q 707 789 792 748 q 526 830 623 830 q 341 781 426 830 q 208 649 257 733 q 159 462 159 565 q 208 276 159 360 q 341 144 257 192 q 526 95 426 95 q 707 136 623 95 q 857 250 792 177 l 857 119 q 511 -11 720 -11 q 271 51 380 -11 q 98 223 163 114 q 34 462 34 331 q 98 702 34 594 q 271 874 163 811 q 511 937 380 937 "},"L":{"x_min":129.234375,"x_max":682.859375,"ha":716,"o":"m 129 0 l 129 925 l 244 925 l 244 107 l 682 107 l 682 0 l 129 0 "},"A":{"x_min":61.71875,"x_max":903.734375,"ha":968,"o":"m 420 925 l 544 925 l 903 0 l 788 0 l 679 284 l 286 284 l 177 0 l 61 0 l 420 925 m 483 820 l 320 380 l 645 380 l 483 820 "},"J":{"x_min":1.921875,"x_max":508.296875,"ha":621,"o":"m 508 288 q 471 129 508 197 q 369 25 435 61 q 218 -11 303 -11 q 99 8 156 -11 q 1 66 43 28 l 1 196 q 93 126 42 152 q 194 101 144 101 q 294 123 249 101 q 366 191 339 146 q 392 299 392 236 l 392 925 l 508 925 l 508 288 "},"O":{"x_min":34.71875,"x_max":1005.015625,"ha":1042,"o":"m 519 937 q 763 874 652 937 q 939 702 874 811 q 1005 462 1005 594 q 939 223 1005 331 q 763 51 874 114 q 519 -11 652 -11 q 276 51 387 -11 q 99 223 164 114 q 34 462 34 331 q 99 702 34 594 q 276 874 164 811 q 519 937 387 937 m 519 830 q 338 781 421 830 q 207 648 255 733 q 159 462 159 564 q 207 277 159 361 q 338 144 255 192 q 519 95 421 95 q 701 144 618 95 q 832 277 784 192 q 880 462 880 361 q 832 648 880 564 q 701 781 784 733 q 519 830 618 830 "},"W":{"x_min":56.90625,"x_max":1330.046875,"ha":1389,"o":"m 462 0 l 346 0 l 56 925 l 172 925 l 404 165 l 635 925 l 751 925 l 982 165 l 1214 925 l 1330 925 l 1040 0 l 924 0 l 693 760 l 462 0 "}," ":{"x_min":0,"x_max":0,"ha":474},"X":{"x_min":29.890625,"x_max":863.234375,"ha":893,"o":"m 444 398 l 169 0 l 29 0 l 375 482 l 58 925 l 203 925 l 447 568 l 693 925 l 834 925 l 517 484 l 863 0 l 718 0 l 444 398 "},"P":{"x_min":110.921875,"x_max":702.15625,"ha":757,"o":"m 421 925 q 562 888 497 925 q 664 788 626 851 q 702 651 702 725 q 664 512 702 575 q 562 412 626 449 q 421 375 497 375 l 226 375 l 226 0 l 110 0 l 110 925 l 421 925 m 408 471 q 497 495 457 471 q 561 561 538 519 q 585 651 585 602 q 561 740 585 699 q 497 805 538 781 q 408 829 457 829 l 226 829 l 226 471 l 408 471 "},"B":{"x_min":110.921875,"x_max":733.015625,"ha":777,"o":"m 408 925 q 545 895 485 925 q 640 810 606 864 q 675 691 675 757 q 640 575 675 627 q 549 494 606 522 q 681 406 630 471 q 733 257 733 341 q 695 126 733 185 q 591 33 657 67 q 442 0 525 0 l 110 0 l 110 925 l 408 925 m 403 529 q 482 550 446 529 q 538 606 517 570 q 559 682 559 641 q 538 759 559 724 q 482 815 517 794 q 403 836 446 836 l 226 836 l 226 529 l 403 529 m 437 89 q 528 113 487 89 q 593 178 570 137 q 617 267 617 218 q 593 355 617 315 q 529 420 570 396 q 437 443 488 443 l 226 443 l 226 89 l 437 89 "},"H":{"x_min":110.921875,"x_max":892.171875,"ha":1005,"o":"m 231 417 l 231 0 l 110 0 l 110 925 l 231 925 l 231 524 l 771 524 l 771 925 l 892 925 l 892 0 l 771 0 l 771 417 l 231 417 "},"D":{"x_min":110.921875,"x_max":951,"ha":988,"o":"m 473 925 q 713 864 603 925 q 886 697 822 803 q 951 462 951 591 q 886 228 951 334 q 713 61 822 122 q 473 0 603 0 l 110 0 l 110 925 l 473 925 m 473 103 q 651 150 570 103 q 780 280 733 198 q 827 462 827 362 q 780 644 827 563 q 651 773 733 726 q 473 820 570 820 l 226 820 l 226 103 l 473 103 "},"R":{"x_min":122.484375,"x_max":771.609375,"ha":815,"o":"m 432 925 q 572 888 508 925 q 675 788 637 851 q 713 651 713 725 q 688 540 713 592 q 619 451 663 488 q 521 402 575 415 l 771 0 l 638 0 l 406 375 l 238 375 l 238 0 l 122 0 l 122 925 l 432 925 m 419 471 q 508 495 467 471 q 573 561 549 519 q 597 651 597 602 q 573 740 597 699 q 508 805 549 781 q 419 829 467 829 l 238 829 l 238 471 l 419 471 "},"I":{"x_min":117.671875,"x_max":233.40625,"ha":352,"o":"m 233 925 l 233 0 l 117 0 l 117 925 l 233 925 "},"G":{"x_min":34.71875,"x_max":877.703125,"ha":962,"o":"m 530 937 q 717 903 624 937 q 877 807 811 869 l 877 682 q 723 790 814 751 q 536 830 633 830 q 343 782 430 830 q 208 649 257 733 q 159 462 159 565 q 208 273 159 358 q 343 138 258 188 q 533 88 429 88 q 667 115 602 88 q 781 190 733 142 l 780 404 l 519 404 l 519 490 l 877 490 l 877 127 q 714 25 807 61 q 522 -11 621 -11 q 276 51 388 -11 q 99 223 164 114 q 34 462 34 331 q 97 700 34 592 q 274 873 161 809 q 530 937 387 937 "},"U":{"x_min":90.65625,"x_max":854.546875,"ha":946,"o":"m 854 368 q 802 173 854 260 q 664 37 751 86 q 472 -11 576 -11 q 280 37 367 -11 q 141 172 192 85 q 90 368 90 259 l 90 925 l 210 925 l 210 368 q 244 227 210 290 q 339 129 279 164 q 472 94 399 94 q 604 130 544 94 q 699 228 664 165 q 734 368 734 291 l 734 925 l 854 925 l 854 368 "}}}
